<svg id="Livello_1" data-name="Livello 1" xmlns="http://www.w3.org/2000/svg" viewBox="0 0 500 500"><defs><style>.cls-1,.cls-3{fill:#d6d0d0;}.cls-1{opacity:0.24;}.cls-2{fill:#e5e4e4;}</style></defs><title>icona 6</title><rect class="cls-1" x="188.86" y="212.76" width="97.4" height="149.61"/><path class="cls-2" d="M350.42,365H240.53a2.59,2.59,0,0,1-2.59-2.58V224.89a2.59,2.59,0,0,1,2.59-2.59H350.42a2.59,2.59,0,0,1,2.59,2.59V362.37A2.59,2.59,0,0,1,350.42,365Zm-107.31-5.17H347.84V227.48H243.11Z"/><path class="cls-2" d="M295.48,220.74A17.78,17.78,0,1,1,313.25,203,17.8,17.8,0,0,1,295.48,220.74Zm0-30.38a12.61,12.61,0,1,0,12.6,12.6A12.62,12.62,0,0,0,295.48,190.36Z"/><path class="cls-3" d="M259.47,363.66H149.58a2.59,2.59,0,0,1-2.59-2.59V251.18a2.59,2.59,0,0,1,2.59-2.59H259.47a2.59,2.59,0,0,1,2.59,2.59V361.07A2.59,2.59,0,0,1,259.47,363.66Zm-107.31-5.18H256.89V253.76H152.16Z"/><path class="cls-3" d="M204.52,247a17.78,17.78,0,1,1,17.78-17.77A17.79,17.79,0,0,1,204.52,247Zm0-30.38a12.61,12.61,0,1,0,12.61,12.61A12.61,12.61,0,0,0,204.52,216.64Z"/></svg>