<svg id="Livello_1" data-name="Livello 1" xmlns="http://www.w3.org/2000/svg" viewBox="0 0 500 500"><defs><style>.cls-1{fill:#ccc5c5;opacity:0.54;}.cls-2,.cls-3{fill:none;stroke-linecap:round;stroke-linejoin:round;stroke-width:7.3px;}.cls-2{stroke:#c6b9b9;}.cls-3{stroke:#b19f9d;}</style></defs><title>icona 2</title><path class="cls-1" d="M105.29,232.58H463.5a0,0,0,0,1,0,0V279.3A179.1,179.1,0,0,1,284.4,458.4h0a179.1,179.1,0,0,1-179.1-179.1V232.58a0,0,0,0,1,0,0Z"/><path class="cls-2" d="M91.06,266.77H359.31a0,0,0,0,1,0,0v66.71A121.28,121.28,0,0,1,238,454.75h-25.7A121.28,121.28,0,0,1,91.06,333.48V266.77A0,0,0,0,1,91.06,266.77Z"/><path class="cls-3" d="M40.15,306.39H251.86a0,0,0,0,1,0,0V359a95.71,95.71,0,0,1-95.71,95.71H135.86A95.71,95.71,0,0,1,40.15,359V306.39a0,0,0,0,1,0,0Z"/></svg>