<svg id="Livello_1" data-name="Livello 1" xmlns="http://www.w3.org/2000/svg" viewBox="0 0 500 500"><defs><style>.cls-1,.cls-3,.cls-4{fill:none;stroke-linejoin:round;stroke-width:3.81px;}.cls-1,.cls-2{stroke:#d1d3d3;}.cls-2{fill:#d1d3d3;stroke-miterlimit:10;stroke-width:4.94px;opacity:0.14;}.cls-3{stroke:#cdddda;}.cls-4{stroke:#e4edeb;}</style></defs><title>icona 5</title><path class="cls-1" d="M122.44,328.75H440.93a0,0,0,0,1,0,0v0a38.06,38.06,0,0,1-38.06,38.06H160.5a38.06,38.06,0,0,1-38.06-38.06v0A0,0,0,0,1,122.44,328.75Z"/><path class="cls-2" d="M22.47,312.81H477.53a0,0,0,0,1,0,0v0a54.38,54.38,0,0,1-54.38,54.38H76.85a54.38,54.38,0,0,1-54.38-54.38v0a0,0,0,0,1,0,0Z"/><path class="cls-3" d="M122.44,301.94H440.93a0,0,0,0,1,0,0v0A38.06,38.06,0,0,1,402.87,340H160.5a38.06,38.06,0,0,1-38.06-38.06v0A0,0,0,0,1,122.44,301.94Z"/><path class="cls-4" d="M122.44,274.84H440.93a0,0,0,0,1,0,0v0a38.06,38.06,0,0,1-38.06,38.06H160.5a38.06,38.06,0,0,1-38.06-38.06v0A0,0,0,0,1,122.44,274.84Z"/></svg>