<svg id="Livello_1" data-name="Livello 1" xmlns="http://www.w3.org/2000/svg" viewBox="0 0 500 500"><defs><style>.cls-1{opacity:0.57;}.cls-2{fill:#dfe6ed;}.cls-3,.cls-4{fill:none;}.cls-3{stroke:#bcc1c0;stroke-linejoin:round;stroke-width:4.09px;}.cls-4{stroke:#c3cfd8;stroke-miterlimit:10;stroke-width:7.43px;}</style></defs><title>icona 3</title><g class="cls-1"><path class="cls-2" d="M267.24,355.86v78.78a19.2,19.2,0,0,1-19.17,19.2H177.69a19.2,19.2,0,0,1-19.17-19.2V355.86a375.55,375.55,0,0,1,12.26-95.2,384.89,384.89,0,0,0,12.59-97.61V75.13a9.29,9.29,0,0,1,9.28-9.28H233.1a9.29,9.29,0,0,1,9.29,9.28v87.92A384.44,384.44,0,0,0,255,260.66,376,376,0,0,1,267.24,355.86ZM248.7,434.64V355.86A357.78,357.78,0,0,0,237,265.38a402.84,402.84,0,0,1-13.19-102.33V84.38H201.9v78.67a403.28,403.28,0,0,1-13.18,102.33,357.33,357.33,0,0,0-11.67,90.48v78.78a.63.63,0,0,0,.64.63h70.38A.63.63,0,0,0,248.7,434.64Z"/><path class="cls-2" d="M248.7,355.86v78.78a.63.63,0,0,1-.63.63H177.69a.63.63,0,0,1-.64-.63V355.86a357.33,357.33,0,0,1,11.67-90.48A403.28,403.28,0,0,0,201.9,163.05V84.38h21.95v78.67A402.84,402.84,0,0,0,237,265.38,357.78,357.78,0,0,1,248.7,355.86Z"/></g><path class="cls-3" d="M332.71,345.74a211.06,211.06,0,0,1-6.92-53.59V243.88a5.09,5.09,0,0,0-5.09-5.09H298.49a5.1,5.1,0,0,0-5.1,5.09v48.27a211.05,211.05,0,0,1-6.91,53.59A206.11,206.11,0,0,0,279.75,398v43.25a10.54,10.54,0,0,0,10.52,10.54h38.64a10.54,10.54,0,0,0,10.53-10.54V398A206.56,206.56,0,0,0,332.71,345.74Z"/><g class="cls-1"><path class="cls-4" d="M294.59,449.49a.63.63,0,0,1-.64.63H223.57a.63.63,0,0,1-.63-.63V370.71a357.83,357.83,0,0,1,11.66-90.48,402.76,402.76,0,0,0,13.19-102.32V99.24h22v78.67a403.2,403.2,0,0,0,13.18,102.32,357.39,357.39,0,0,1,11.67,90.48Z"/></g></svg>