<svg id="Livello_1" data-name="Livello 1" xmlns="http://www.w3.org/2000/svg" viewBox="0 0 500 500"><defs><style>.cls-1{fill:#fff;}</style></defs><title>noorde logo2</title><path class="cls-1" d="M46.4,383.26a8.05,8.05,0,0,1-2.5-6.8L76.7,121.59c.57-4.42,4.86-7.77,10-7.77H208c5.1,0,9.38,3.35,10,7.77l32.8,254.87a8.05,8.05,0,0,1-2.5,6.8,10.7,10.7,0,0,1-7.46,2.92H53.86A10.68,10.68,0,0,1,46.4,383.26ZM199.05,131.32H95.61L65.08,368.68H229.59Z"/><path class="cls-1" d="M439.84,250.08,423.4,378.36c-.6,4.41-5,7.82-10,7.82H292.11c-5.21,0-9.42-3.41-10-7.82L265.46,250.08Z"/><path class="cls-1" d="M453.67,116.62a11.17,11.17,0,0,0-7.62-2.8H259.24a11.15,11.15,0,0,0-7.61,2.8,8.28,8.28,0,0,0-2.41,6.82l13.43,104.43H282.9l0-.12H422.41v.12h20.24l13.43-104.43A8.31,8.31,0,0,0,453.67,116.62ZM280.21,207l-9.74-75.75H434.83L425.08,207Z"/></svg>